<svg width="190.000000" height="32.337646" viewBox="0 0 190 32.3376" fill="none" xmlns="http://www.w3.org/2000/svg" xmlns:xlink="http://www.w3.org/1999/xlink">
	<desc>
			Created with Pixso.
	</desc>
	<defs/>
	<path id="path22" d="M86.38 12.03C88.34 9.5 90.98 8.54 93.64 8.54C97.4 8.54 100.17 11.13 100.17 15.23L100.17 26.25L96.17 26.25L96.17 15.93C96.17 13.6 94.37 12.3 92.34 12.3C90.01 12.3 87.41 13.66 86.38 16.89L86.38 26.25L82.45 26.25L82.45 3.17L86.38 3.17L86.38 12.03Z" fill="#FFFFFF" fill-opacity="1.000000" fill-rule="nonzero"/>
	<path id="path26" d="M117.15 23.19C115.25 25.75 112.49 26.62 109.92 26.62C106.1 26.62 103.43 24.02 103.43 19.92L103.43 8.9L107.39 8.9L107.39 19.42C107.39 21.69 109.19 22.95 111.12 22.95C113.45 22.95 116.15 21.52 117.18 18.29L117.18 8.9L121.11 8.9L121.11 26.25L117.32 26.25L117.15 23.19Z" fill="#FFFFFF" fill-opacity="1.000000" fill-rule="nonzero"/>
	<path id="path30" d="M128.6 12.03C130.57 9.47 133.2 8.54 135.86 8.54C139.63 8.54 142.39 11.13 142.39 15.23L142.39 26.25L138.39 26.25L138.39 15.76C138.39 13.5 136.6 12.23 134.63 12.23C132.27 12.23 129.74 13.66 128.6 16.89L128.6 26.25L124.68 26.25L124.68 8.9L128.44 8.9L128.6 12.03Z" fill="#FFFFFF" fill-opacity="1.000000" fill-rule="nonzero"/>
	<path id="path34" d="M147.22 3.17L151.15 3.17L151.15 8.9L154.28 8.9L154.28 12.76L151.15 12.76L151.15 18.89C151.15 21.69 151.82 22.55 154.08 22.55C154.35 22.55 155.15 22.49 155.41 22.46L155.41 26.32C154.78 26.42 153.81 26.45 153.15 26.45C148.92 26.45 147.22 23.95 147.22 19.03L147.22 12.76L144.79 12.76L144.79 8.9L147.22 8.9L147.22 3.17Z" fill="#FFFFFF" fill-opacity="1.000000" fill-rule="nonzero"/>
	<path id="path38" d="M161.67 15.99L172.19 15.99C171.96 13.36 169.96 11.97 166.79 11.97C164.16 11.97 162.23 13.46 161.67 15.99ZM172.29 20.72C173.25 21.29 174.22 21.86 175.19 22.36C173.69 25.62 170.22 26.95 166.93 26.95C161.33 26.95 157.67 23.25 157.67 17.76C157.67 12 161.3 8.4 166.79 8.4C171.96 8.4 175.82 11.8 175.92 16.76C175.82 17.69 175.62 18.56 175.52 18.86L161.57 18.83C162.1 21.62 164.1 23.42 166.89 23.42C168.53 23.42 171.22 22.95 172.29 20.72Z" fill="#FFFFFF" fill-opacity="1.000000" fill-rule="nonzero"/>
	<path id="path42" d="M190 12.47C187.2 12.47 182.47 14.2 182.47 17.39L182.47 26.25L178.54 26.25L178.54 8.9L181.94 8.9C181.94 9.6 182.24 11.8 182.24 12.47C184.1 10.07 187.53 8.5 190 8.5L190 12.47Z" fill="#FFFFFF" fill-opacity="1.000000" fill-rule="nonzero"/>
	<path id="path44" d="M27.54 8.74L32.6 8.74L32.6 26.25L27.54 26.25L27.54 8.74Z" fill="#DB00F9" fill-opacity="1.000000" fill-rule="nonzero"/>
	<path id="path48" d="M41.42 11.23C43.12 9.23 45.52 8.34 47.88 8.34C51.75 8.34 54.21 11 54.21 15.1L54.21 26.25L49.08 26.25L49.08 15.83C49.08 13.96 47.82 13.06 46.25 13.06C44.32 13.06 41.92 14.56 41.39 17.46L41.39 26.25L36.33 26.25L36.33 8.74L41.06 8.74L41.42 11.23Z" fill="#DB00F9" fill-opacity="1.000000" fill-rule="nonzero"/>
	<path id="path52" d="M62.61 15.96L71.6 8.74L77.89 8.74L69.2 15.7C71.1 19.39 73.89 21.89 75.56 21.89C76.09 21.89 76.53 21.89 76.89 21.79L76.89 26.25C75.89 26.42 75.06 26.52 74.36 26.52C70.9 26.52 68.77 23.75 65.74 18.39L62.61 20.96L62.61 26.25L57.51 26.25L57.51 2.94L62.61 2.94L62.61 15.96Z" fill="#DB00F9" fill-opacity="1.000000" fill-rule="nonzero"/>
	<path id="path56" d="M12.56 0C5.64 0 0.03 5.61 0.03 12.53C0.03 12.79 0.04 13.04 0.05 13.3C-0.05 15.7 0.01 18.13 0.04 20.55L0.04 22.76L2.66 19.98L2.66 19.98C3.32 19.29 3.99 18.6 4.65 17.9C4.98 17.55 5.55 17.04 5.64 16.75C5.04 15.66 4.69 14.4 4.69 13.06C4.69 8.85 8.1 5.44 12.31 5.44C16.52 5.44 19.93 8.85 19.93 13.06C19.93 17.27 16.52 20.68 12.31 20.68C11.03 20.68 9.83 20.36 8.77 19.8C8.74 19.79 8.71 19.78 8.67 19.75C8.62 19.72 8.58 19.7 8.53 19.67C8.51 19.66 8.48 19.64 8.45 19.62C7.86 19.32 7.49 19.43 7.32 19.54C7.27 19.57 7.23 19.61 7.19 19.65C7.12 19.71 7.07 19.77 7.01 19.84L5.98 20.95C4.68 22.25 3.38 23.55 2.09 24.86L2.09 24.86L0.5 26.43C0.35 26.57 0.2 26.72 0.07 26.86L0.03 26.9L0.03 26.86L0 26.89L0 32.33L6.41 25.48C7.33 24.44 8.19 24.63 9.19 24.94C11.75 25.74 14.31 25.58 16.7 24.54C17.68 24.11 18.57 23.61 19.38 23.04C22.82 20.81 25.1 16.93 25.1 12.53C25.1 5.61 19.48 0 12.56 0Z" fill="#DB00F9" fill-opacity="1.000000" fill-rule="nonzero"/>
	<path id="path60" d="M12.35 17.61C14.87 17.61 16.91 15.57 16.91 13.05C16.91 10.54 14.87 8.49 12.35 8.49C9.83 8.49 7.79 10.54 7.79 13.05C7.79 15.57 9.83 17.61 12.35 17.61Z" fill="#DB00F9" fill-opacity="1.000000" fill-rule="nonzero"/>
	<path id="path64" d="M30.06 7.12C32.03 7.12 33.62 5.52 33.62 3.56C33.62 1.6 32.03 0 30.06 0C28.1 0 26.51 1.6 26.51 3.56C26.51 5.52 28.1 7.12 30.06 7.12Z" fill="#DB00F9" fill-opacity="1.000000" fill-rule="nonzero"/>
</svg>
